<?xml version="1.0" encoding="UTF-8" standalone="no"?>
<!-- Generated by IcoMoon.io -->

<svg
   xmlns:dc="http://purl.org/dc/elements/1.1/"
   xmlns:cc="http://creativecommons.org/ns#"
   xmlns:rdf="http://www.w3.org/1999/02/22-rdf-syntax-ns#"
   xmlns:svg="http://www.w3.org/2000/svg"
   xmlns="http://www.w3.org/2000/svg"
   xmlns:sodipodi="http://sodipodi.sourceforge.net/DTD/sodipodi-0.dtd"
   xmlns:inkscape="http://www.inkscape.org/namespaces/inkscape"
   version="1.1"
   width="20.718"
   height="32"
   viewBox="0 0 20.718 32"
   id="svg2"
   inkscape:version="0.91 r13725"
   sodipodi:docname="campo.svg">
  <metadata
     id="metadata12">
    <rdf:RDF>
      <cc:Work
         rdf:about="">
        <dc:format>image/svg+xml</dc:format>
        <dc:type
           rdf:resource="http://purl.org/dc/dcmitype/StillImage" />
        <dc:title>campo</dc:title>
      </cc:Work>
    </rdf:RDF>
  </metadata>
  <defs
     id="defs10" />
  <sodipodi:namedview
     pagecolor="#ffffff"
     bordercolor="#666666"
     borderopacity="1"
     objecttolerance="10"
     gridtolerance="10"
     guidetolerance="10"
     inkscape:pageopacity="0"
     inkscape:pageshadow="2"
     inkscape:window-width="1920"
     inkscape:window-height="1018"
     id="namedview8"
     showgrid="false"
     inkscape:zoom="14.75"
     inkscape:cx="3.5511014"
     inkscape:cy="11.241578"
     inkscape:window-x="-8"
     inkscape:window-y="-8"
     inkscape:window-maximized="1"
     inkscape:current-layer="svg2"
     fit-margin-top="0"
     fit-margin-left="0"
     fit-margin-right="0"
     fit-margin-bottom="0" />
  <title
     id="title4">campo</title>
  <path
     d="m 0,0 0,32 20.718,0 0,-32 L 0,0 Z m 0.149,0.149 4.491,0 0,3.732 3.332,0 c 0.034,1.256 1.058,2.266 2.322,2.266 1.264,0 2.288,-1.01 2.322,-2.266 l 3.382,0 0,-3.732 4.571,0 0,15.791 -6.349,0 c -0.032,-2.112 -1.755,-3.816 -3.875,-3.816 -2.12,0 -3.843,1.704 -3.875,3.816 l -6.319,0 0,-15.791 z m 4.616,0 11.107,0 0,3.607 -11.107,0 0,-3.607 z m 3.332,3.733 4.394,0 C 12.457,5.07 11.49,6.023 10.294,6.023 9.098,6.023 8.131,5.07 8.097,3.882 Z m 2.247,8.384 c 2.043,0 3.7,1.639 3.732,3.674 l -7.464,0 c 0.032,-2.035 1.689,-3.674 3.732,-3.674 z m -10.195,3.794 6.319,0 c 0.032,2.112 1.755,3.816 3.875,3.816 2.12,0 3.843,-1.704 3.875,-3.816 l 6.349,0 0,15.791 -4.546,0 0,-3.72 -3.332,0 c -0.034,-1.256 -1.058,-2.266 -2.322,-2.266 -1.264,0 -2.288,1.01 -2.322,2.266 l -3.382,0 0,3.72 -4.516,0 0,-15.791 z m 6.463,0 7.464,0 c -0.032,2.035 -1.689,3.674 -3.732,3.674 -2.043,0 -3.7,-1.639 -3.732,-3.674 z m 3.757,9.93 c 1.196,0 2.163,0.953 2.197,2.141 l -4.394,0 C 8.206,26.943 9.173,25.99 10.369,25.99 Z m -5.579,2.266 11.107,0 0,3.595 -11.107,0 0,-3.595 z"
     id="path6"
     inkscape:connector-curvature="0"
     style="fill:#888888;fill-opacity:1" />
</svg>
